<svg width="92" height="27" viewBox="0 0 92 27" fill="none" xmlns="http://www.w3.org/2000/svg">
<path d="M23.9759 5.65631C24.5646 5.49855 25.0852 5.15153 25.4574 4.66875C25.8294 4.18596 26.0323 3.59419 26.035 2.98468V2.97743C26.035 2.24487 25.744 1.54232 25.2259 1.02433C24.7079 0.506337 24.0053 0.215332 23.2729 0.215332H23.2658C22.6563 0.217998 22.0646 0.421022 21.582 0.793103C21.0993 1.16518 20.7522 1.68569 20.5946 2.27439C20.1434 3.90892 19.1683 5.35028 17.8192 6.37745C16.47 7.40462 14.8212 7.96087 13.1255 7.96087C11.4299 7.96087 9.781 7.40462 8.43183 6.37745C7.08267 5.35028 6.10771 3.90892 5.65647 2.27439C5.49863 1.68573 5.15159 1.16531 4.66884 0.793319C4.18609 0.421314 3.59442 0.218383 2.98498 0.215794H2.97774C2.24519 0.215794 1.54263 0.506799 1.02463 1.02479C0.506642 1.54278 0.215637 2.24534 0.215637 2.97789V2.98514C0.218334 3.59458 0.421358 4.18623 0.793439 4.66894C1.16552 5.15162 1.68601 5.49857 2.27469 5.65631C3.90922 6.10755 5.3506 7.08252 6.37776 8.43168C7.40493 9.78083 7.96117 11.4297 7.96117 13.1254C7.96117 14.821 7.40493 16.4698 6.37776 17.8191C5.3506 19.1683 3.90922 20.1432 2.27469 20.5944C1.68604 20.7522 1.1656 21.0991 0.793547 21.5818C0.421496 22.0645 0.218488 22.6561 0.215792 23.2654V23.2727C0.215792 24.0053 0.506796 24.7078 1.02479 25.2259C1.5428 25.7438 2.24533 26.0348 2.97789 26.0348H2.98514C3.59459 26.0322 4.18623 25.8291 4.66893 25.457C5.15162 25.0849 5.49856 24.5644 5.65631 23.9757C6.10756 22.3412 7.08253 20.8999 8.43168 19.8727C9.78085 18.8454 11.4297 18.2893 13.1254 18.2893C14.821 18.2893 16.4699 18.8454 17.8191 19.8727C19.1681 20.8999 20.1432 22.3412 20.5944 23.9757C20.7521 24.5644 21.0991 25.085 21.5818 25.4572C22.0645 25.8292 22.6563 26.0323 23.2658 26.0349H23.273C24.0055 26.0349 24.7081 25.7438 25.226 25.2259C25.744 24.7079 26.0351 24.0053 26.0351 23.2728V23.2654C26.0325 22.6559 25.8294 22.0643 25.4574 21.5816C25.0852 21.099 24.5647 20.7521 23.976 20.5943C22.3416 20.143 20.9002 19.1681 19.873 17.8189C18.8458 16.4697 18.2896 14.8209 18.2896 13.1252C18.2896 11.4295 18.8458 9.78069 19.873 8.43153C20.9002 7.08237 22.3416 6.10741 23.976 5.65616L23.9759 5.65631Z" fill="#AF51C5"/>
<path d="M23.9759 5.65631C24.5646 5.49855 25.0852 5.15153 25.4574 4.66875C25.8294 4.18596 26.0323 3.59419 26.035 2.98468V2.97743C26.035 2.24487 25.744 1.54232 25.2259 1.02433C24.7079 0.506337 24.0053 0.215332 23.2729 0.215332H23.2658C22.6563 0.217998 22.0646 0.421022 21.582 0.793103C21.0993 1.16518 20.7522 1.68569 20.5946 2.27439C20.1434 3.90892 19.1683 5.35028 17.8192 6.37745C16.47 7.40462 14.8212 7.96087 13.1255 7.96087C11.4299 7.96087 9.781 7.40462 8.43183 6.37745C7.08267 5.35028 6.10771 3.90892 5.65647 2.27439C5.49863 1.68573 5.15159 1.16531 4.66884 0.793319C4.18609 0.421314 3.59442 0.218383 2.98498 0.215794H2.97774C2.24519 0.215794 1.54263 0.506799 1.02463 1.02479C0.506642 1.54278 0.215637 2.24534 0.215637 2.97789V2.98514C0.218334 3.59458 0.421358 4.18623 0.793439 4.66894C1.16552 5.15162 1.68601 5.49857 2.27469 5.65631C3.90922 6.10755 5.3506 7.08252 6.37776 8.43168C7.40493 9.78083 7.96117 11.4297 7.96117 13.1254C7.96117 14.821 7.40493 16.4698 6.37776 17.8191C5.3506 19.1683 3.90922 20.1432 2.27469 20.5944C1.68604 20.7522 1.1656 21.0991 0.793547 21.5818C0.421496 22.0645 0.218488 22.6561 0.215792 23.2654V23.2727C0.215792 24.0053 0.506796 24.7078 1.02479 25.2259C1.5428 25.7438 2.24533 26.0348 2.97789 26.0348H2.98514C3.59459 26.0322 4.18623 25.8291 4.66893 25.457C5.15162 25.0849 5.49856 24.5644 5.65631 23.9757C6.10756 22.3412 7.08253 20.8999 8.43168 19.8727C9.78085 18.8454 11.4297 18.2893 13.1254 18.2893C14.821 18.2893 16.4699 18.8454 17.8191 19.8727C19.1681 20.8999 20.1432 22.3412 20.5944 23.9757C20.7521 24.5644 21.0991 25.085 21.5818 25.4572C22.0645 25.8292 22.6563 26.0323 23.2658 26.0349H23.273C24.0055 26.0349 24.7081 25.7438 25.226 25.2259C25.744 24.7079 26.0351 24.0053 26.0351 23.2728V23.2654C26.0325 22.6559 25.8294 22.0643 25.4574 21.5816C25.0852 21.099 24.5647 20.7521 23.976 20.5943C22.3416 20.143 20.9002 19.1681 19.873 17.8189C18.8458 16.4697 18.2896 14.8209 18.2896 13.1252C18.2896 11.4295 18.8458 9.78069 19.873 8.43153C20.9002 7.08237 22.3416 6.10741 23.976 5.65616L23.9759 5.65631Z" fill="url(#paint0_linear_5219_4)"/>
<path d="M39.26 20C39.1133 20 38.9933 19.9533 38.9 19.86C38.82 19.7667 38.78 19.6467 38.78 19.5V18.1C38.78 17.8733 38.8267 17.7 38.92 17.58C39.0133 17.4467 39.0667 17.3733 39.08 17.36L46.04 8.36H39.46C39.3267 8.36 39.2133 8.31333 39.12 8.22C39.0267 8.12667 38.98 8.01333 38.98 7.88V6.5C38.98 6.35333 39.02 6.23333 39.1 6.14C39.1933 6.04667 39.3133 6 39.46 6H49.02C49.1667 6 49.2867 6.04667 49.38 6.14C49.4733 6.23333 49.52 6.35333 49.52 6.5V7.88C49.52 8.12 49.4333 8.35333 49.26 8.58L42.44 17.62H49.24C49.3867 17.62 49.5067 17.6667 49.6 17.76C49.6933 17.8533 49.74 17.9733 49.74 18.12V19.52C49.74 19.6667 49.6933 19.7867 49.6 19.88C49.5067 19.96 49.3867 20 49.24 20H39.26ZM56.2052 20.2C54.6452 20.2 53.4385 19.8 52.5852 19C51.7318 18.1867 51.2718 17.08 51.2052 15.68L51.1852 14.8L51.2052 13.92C51.2718 12.5333 51.7385 11.4333 52.6052 10.62C53.4718 9.80667 54.6718 9.4 56.2052 9.4C57.7385 9.4 58.9385 9.80667 59.8052 10.62C60.6718 11.4333 61.1385 12.5333 61.2052 13.92C61.2185 14.08 61.2252 14.3733 61.2252 14.8C61.2252 15.2267 61.2185 15.52 61.2052 15.68C61.1385 17.08 60.6785 18.1867 59.8252 19C58.9718 19.8 57.7652 20.2 56.2052 20.2ZM56.2052 18.22C56.9118 18.22 57.4585 18 57.8452 17.56C58.2318 17.1067 58.4452 16.4467 58.4852 15.58C58.4985 15.4467 58.5052 15.1867 58.5052 14.8C58.5052 14.4133 58.4985 14.1533 58.4852 14.02C58.4452 13.1533 58.2318 12.5 57.8452 12.06C57.4585 11.6067 56.9118 11.38 56.2052 11.38C55.4985 11.38 54.9518 11.6067 54.5652 12.06C54.1785 12.5 53.9652 13.1533 53.9252 14.02L53.9052 14.8L53.9252 15.58C53.9652 16.4467 54.1785 17.1067 54.5652 17.56C54.9518 18 55.4985 18.22 56.2052 18.22ZM63.9211 20C63.7878 20 63.6744 19.9533 63.5811 19.86C63.4878 19.7667 63.4411 19.6533 63.4411 19.52V10.08C63.4411 9.94667 63.4878 9.83333 63.5811 9.74C63.6744 9.64667 63.7878 9.6 63.9211 9.6H65.5611C65.6944 9.6 65.8078 9.64667 65.9011 9.74C65.9944 9.83333 66.0411 9.94667 66.0411 10.08V10.9C66.8278 9.9 67.9411 9.4 69.3811 9.4C70.6078 9.4 71.5811 9.80667 72.3011 10.62C73.0211 11.42 73.3811 12.5133 73.3811 13.9V19.52C73.3811 19.6533 73.3344 19.7667 73.2411 19.86C73.1611 19.9533 73.0478 20 72.9011 20H71.1411C71.0078 20 70.8944 19.9533 70.8011 19.86C70.7078 19.7667 70.6611 19.6533 70.6611 19.52V14.02C70.6611 13.2333 70.4678 12.6267 70.0811 12.2C69.7078 11.76 69.1611 11.54 68.4411 11.54C67.7344 11.54 67.1744 11.76 66.7611 12.2C66.3611 12.64 66.1611 13.2467 66.1611 14.02V19.52C66.1611 19.6533 66.1144 19.7667 66.0211 19.86C65.9411 19.9533 65.8278 20 65.6811 20H63.9211ZM80.4016 20.2C78.9216 20.2 77.7416 19.7733 76.8616 18.92C75.9949 18.0533 75.5349 16.84 75.4816 15.28L75.4616 14.78L75.4816 14.28C75.5482 12.76 76.0149 11.5667 76.8816 10.7C77.7616 9.83333 78.9349 9.4 80.4016 9.4C81.9749 9.4 83.1882 9.88 84.0416 10.84C84.9082 11.8 85.3416 13.08 85.3416 14.68V15.1C85.3416 15.2333 85.2949 15.3467 85.2016 15.44C85.1082 15.5333 84.9882 15.58 84.8416 15.58H78.2016V15.74C78.2282 16.4733 78.4282 17.0933 78.8016 17.6C79.1882 18.0933 79.7149 18.34 80.3816 18.34C81.1682 18.34 81.8016 18.0333 82.2816 17.42C82.4016 17.2733 82.4949 17.18 82.5616 17.14C82.6416 17.1 82.7549 17.08 82.9016 17.08H84.6216C84.7416 17.08 84.8416 17.12 84.9216 17.2C85.0149 17.2667 85.0616 17.3533 85.0616 17.46C85.0616 17.78 84.8682 18.16 84.4816 18.6C84.1082 19.0267 83.5682 19.4 82.8616 19.72C82.1549 20.04 81.3349 20.2 80.4016 20.2ZM82.6216 13.9V13.84C82.6216 13.0533 82.4216 12.42 82.0216 11.94C81.6349 11.46 81.0949 11.22 80.4016 11.22C79.7082 11.22 79.1682 11.46 78.7816 11.94C78.3949 12.42 78.2016 13.0533 78.2016 13.84V13.9H82.6216ZM87.8245 20C87.6912 20 87.5779 19.9533 87.4845 19.86C87.3912 19.7667 87.3445 19.6533 87.3445 19.52V17.54C87.3445 17.4067 87.3912 17.2933 87.4845 17.2C87.5779 17.0933 87.6912 17.04 87.8245 17.04H89.8245C89.9579 17.04 90.0712 17.0933 90.1645 17.2C90.2579 17.2933 90.3045 17.4067 90.3045 17.54V19.52C90.3045 19.6533 90.2579 19.7667 90.1645 19.86C90.0712 19.9533 89.9579 20 89.8245 20H87.8245Z" fill="white"/>
<defs>
<linearGradient id="paint0_linear_5219_4" x1="8.63501" y1="-11.0106" x2="20.7269" y2="40.4251" gradientUnits="userSpaceOnUse">
<stop stop-color="#2F79CB"/>
<stop offset="1" stop-color="#AF51C5"/>
</linearGradient>
</defs>
</svg>
